<svg width="1000" height="800" xmlns="http://www.w3.org/2000/svg">
 <g>
  <title>Layer 1</title>
  <path stroke="#9ACEE6" stroke-width="10" id="svg_7" d="m321.12607,239.87218l-147.67256,156.77106l147.67256,156.77091l-84.39332,89.64643l-232.06574,-246.41732l232.06574,-246.43615" fill="none"/>
  <path stroke="#9ACEE6" stroke-width="10" id="svg_8" d="m706.63346,558.90167l134.70347,-158.90441l-134.70347,-158.90555l76.98985,-90.81262l211.70965,249.71817l-211.70965,249.79565" fill="none"/>
  <path stroke="#9ACEE6" id="svg_11" d="m341.72603,492.8216l343.78196,0.13552l-11.1558,17.02378l-321.33864,-0.40655l-11.28753,-16.75275l0.00001,0zm2.36251,-226.45481l339.18819,-0.40655l9.84362,17.46379l-359.00683,0.13552l9.97502,-17.19276zm-33.47373,113.47345l405.87298,-0.40655l-0.52464,17.46381l-405.08584,-0.27103l-0.2625,-16.78623zm406.20896,1.61976c0,115.6145 -91.1094,209.66806 -203.11639,209.66806c-111.9586,0 -203.05102,-94.07057 -203.05102,-209.66806c0,-115.59806 91.10888,-209.65161 203.05102,-209.65161c112.00701,-0.01698 203.11639,94.05355 203.11639,209.65161zm-203.10044,-226.45482c-120.89576,0 -219.27583,101.57812 -219.27583,226.43779c0,124.87669 98.38009,226.45479 219.27583,226.45479c120.96159,0 219.32524,-101.5781 219.32524,-226.45479c0,-124.85967 -98.36364,-226.43779 -219.32524,-226.43779zm61.53495,226.45482c0,123.54371 -32.41774,209.66806 -61.53495,209.66806c-29.08427,0 -61.50149,-86.12435 -61.50149,-209.66806c0,-123.57773 32.40125,-209.65161 61.50149,-209.65161c29.10078,-0.01698 61.53495,86.07389 61.53495,209.65161zm-61.53495,-226.45482c-50.50494,0 -77.75923,116.67717 -77.75923,226.43779c0,109.79413 27.25429,226.45479 77.75923,226.45479c50.50545,0 77.80914,-116.67763 77.80914,-226.45479c-0.01646,-109.76062 -27.30369,-226.43779 -77.80914,-226.43779zm144.11457,226.45482c0,115.6145 -64.67188,209.66806 -144.11457,209.66806c-79.42617,0 -144.06516,-94.07057 -144.06516,-209.66806c0,-115.59806 64.63899,-209.65161 144.06516,-209.65161c79.44268,-0.01698 144.11457,94.05355 144.11457,209.65161zm-144.11457,-226.45482c-88.38031,0 -160.32288,101.57812 -160.32288,226.43779c0,124.87669 71.94257,226.45479 160.32288,226.45479c88.41324,0 160.33985,-101.5781 160.33985,-226.45479c0,-124.85967 -71.92661,-226.43779 -160.33985,-226.43779z" fill="#9ACEE6"/>
 </g>

</svg>